#!OML:ASF I:\Actors\actors\Patient Classification 2\Patient 1\Session 1\actor1.ASF
:FULLY-SPECIFIED
:DEGREES
1008
root -0.648481 18.7762 5.11947 1.41667 0.879142 -2.56694
lowerback 9.4854 1.79945 -2.58203
upperback -0.204359 2.08024 -0.460007
thorax -5.61352 1.0901 0.675952
lowerneck -20.0637 -4.95779 -3.46564
upperneck 15.8514 -7.57343 8.66349
head 8.74271 -2.86259 2.48729
rclavicle -2.22142e-014 -1.51076e-014
rhumerus 2.91375 37.3472 -44.2901
rradius 97.1391
rwrist -39.7232
rhand 6.60455 -52.1105
rfingers 7.12502
rthumb 31.8992 -79.3366
lclavicle -2.22142e-014 -1.51076e-014
lhumerus -3.62599 -40.5144 87.5132
lradius 97.8334
lwrist 40.0002
lhand -23.8586 -11.9175
lfingers 7.12502
lthumb 2.61393 18.0462
rfemur 5.07877 -1.4256 16.3771
rtibia 2.78299e-014
rfoot -14.9935 -11.1335
rtoes -3.33975
lfemur -8.40338 -3.46145 -11.3015
ltibia 22.6961
lfoot -19.2477 11.0569
ltoes -55.4107
1009
root -0.652326 18.775 5.12638 1.40401 1.1722 -2.58043
lowerback 9.44484 1.72636 -2.69463
upperback -0.202792 1.9749 -0.406726
thorax -5.59138 1.04209 0.811182
lowerneck -20.033 -4.97729 -3.53549
upperneck 15.7954 -7.59052 8.73435
head 8.72542 -2.86985 2.52057
rclavicle -4.02539e-015 -6.36111e-015
rhumerus 1.4579 38.8534 -43.9993
rradius 99.3831
rwrist -40.9739
rhand 7.04391 -52.2636
rfingers 7.12502
rthumb 32.3175 -79.4054
lclavicle -4.02539e-015 -6.36111e-015
lhumerus -3.67579 -40.4706 87.5145
lradius 97.8116
lwrist 40.0021
lhand -23.9314 -11.8996
lfingers 7.12502
lthumb 2.54357 18.0649
rfemur 5.16451 -1.71816 16.3985
rtibia -7.95139e-016
rfoot -15.0228 -11.1208
rtoes -3.49552
lfemur -8.45308 -3.60021 -11.2671
ltibia 22.7185
lfoot -19.2085 10.9088
ltoes -55.4449
1010
root -0.655085 18.7734 5.13311 1.38069 1.42977 -2.59806
lowerback 9.44407 1.64359 -2.77327
upperback -0.20742 1.85882 -0.356968
thorax -5.59589 0.988029 0.923916
lowerneck -19.9984 -4.98468 -3.64923
upperneck 15.7282 -7.58207 8.82811
head 8.70466 -2.86588 2.57245
rclavicle 2.27111e-014 1.59028e-014
rhumerus -0.398093 39.852 -44.5766
rradius 101.799
rwrist -41.4698
rhand 8.1891 -52.3888
rfingers 7.12502
rthumb 33.4068 -79.3023
lclavicle 2.27111e-014 1.59028e-014
lhumerus -3.81603 -40.4102 87.5308
lradius 97.822
lwrist 39.9508
lhand -23.909 -11.7991
lfingers 7.12502
lthumb 2.56523 18.1652
rfemur 5.2477 -1.9745 16.4242
rtibia -3.18055e-014
rfoot -15.0422 -11.1441
rtoes -3.88134
lfemur -8.48905 -3.6999 -11.2343
ltibia 22.7485
lfoot -19.1444 10.7994
ltoes -55.5462
1011
root -0.658254 18.7714 5.14067 1.32916 1.70572 -2.68701
lowerback 9.48494 1.55195 -2.81053
upperback -0.22567 1.73701 -0.252304
thorax -5.63789 0.931279 1.07035
lowerneck -19.9641 -5.00513 -3.7846
upperneck 15.7365 -7.57364 8.83467
head 8.706 -2.87041 2.59845
rclavicle -2.18663e-014 1.11319e-014
rhumerus -2.00717 40.6749 -45.0568
rradius 104.307
rwrist -42.1738
rhand 9.56028 -52.566
rfingers 7.12502
rthumb 34.7092 -79.1895
lclavicle -2.18663e-014 1.11319e-014
lhumerus -4.05817 -40.3595 87.6698
lradius 97.7942
lwrist 39.845
lhand -23.8923 -11.8001
lfingers 7.12502
lthumb 2.58135 18.164
rfemur 5.36951 -2.24695 16.5278
rtibia 3.26007e-014
rfoot -15.1088 -11.1282
rtoes -4.04873
lfemur -8.50687 -3.74965 -11.1125
ltibia 22.7861
lfoot -19.0625 10.5893
ltoes -55.6072
1012
root -0.662262 18.7701 5.14739 1.29434 1.92722 -2.80459
lowerback 9.51936 1.46267 -2.81331
upperback -0.249778 1.62245 -0.146477
thorax -5.68113 0.877272 1.19791
lowerneck -19.9669 -5.0055 -3.82848
upperneck 15.7928 -7.54516 8.73536
head 8.72029 -2.86874 2.576
rclavicle 2.93207e-015 8.74653e-015
rhumerus -3.29801 41.1404 -45.5599
rradius 106.792
rwrist -43.1669
rhand 10.5156 -52.8902
rfingers 7.12502
rthumb 35.6152 -79.3004
lclavicle 2.93207e-015 8.74653e-015
lhumerus -4.3252 -40.3266 87.7792
lradius 97.7439
lwrist 39.7973
lhand -23.9074 -11.9443
lfingers 7.12502
lthumb 2.56683 18.02
rfemur 5.46352 -2.46633 16.6667
rtibia 8.74653e-015
rfoot -15.1618 -11.0883
rtoes -3.96776
lfemur -8.53206 -3.81125 -10.9513
ltibia 22.8249
lfoot -19.0329 10.3784
ltoes -55.5239
1013
root -0.66503 18.769 5.1517 1.27448 2.03289 -2.88199
lowerback 9.4108 1.36645 -2.88183
upperback -0.163926 1.49802 -0.0371028
thorax -5.52897 0.817164 1.37226
lowerneck -20.0457 -4.94854 -3.7977
upperneck 15.7574 -7.43854 8.58504
head 8.70624 -2.83155 2.5337
rclavicle 1.73937e-015 3.97569e-015
rhumerus -3.85605 41.1097 -45.9007
rradius 109.052
rwrist -44.1523
rhand 10.8361 -53.02
rfingers 7.12502
rthumb 35.9189 -79.3564
lclavicle 1.73937e-015 3.97569e-015
lhumerus -4.34768 -40.2237 87.6713
lradius 97.7042
lwrist 39.8146
lhand -23.9516 -11.973
lfingers 7.12502
lthumb 2.52412 17.9918
rfemur 5.50916 -2.57104 16.7601
rtibia 2.62396e-014
rfoot -15.1524 -11.0795
rtoes -3.91673
lfemur -8.54281 -3.88032 -10.8505
ltibia 22.8584
lfoot -19.0309 10.3194
ltoes -55.5054
1014
root -0.667081 18.7676 5.15447 1.25594 2.06549 -2.88342
lowerback 9.03892 1.24069 -3.16705
upperback 0.106428 1.32697 0.142826
thorax -5.039 0.733787 1.75463
lowerneck -20.1515 -4.80255 -3.74428
upperneck 15.5492 -7.18534 8.36396
head 8.6244 -2.73541 2.4834
rclavicle -2.47984e-014 -4.77083e-015
rhumerus -3.36097 40.565 -45.7881
rradius 110.938
rwrist -45.151
rhand 10.9337 -52.8886
rfingers 7.12502
rthumb 36.0114 -79.2023
lclavicle -2.47984e-014 -4.77083e-015
lhumerus -4.05443 -39.9245 87.3868
lradius 97.6919
lwrist 39.8612
lhand -24.0241 -11.7129
lfingers 7.12502
lthumb 2.45413 18.2528
rfemur 5.53613 -2.60326 16.7673
rtibia 7.15625e-015
rfoot -15.1479 -11.0853
rtoes -3.72282
lfemur -8.53631 -3.89142 -10.8465
ltibia 22.8785
lfoot -18.9994 10.3614
ltoes -55.6549
1015
root -0.668808 18.7668 5.15498 1.24085 2.01425 -2.89505
lowerback 9.53795 1.27149 -2.86808
upperback -0.235615 1.36844 -0.0253072
thorax -5.66996 0.755475 1.39212
lowerneck -19.922 -4.82427 -3.71096
upperneck 15.7756 -7.24999 8.36533
head 8.66444 -2.7641 2.47328
rclavicle -1.83876e-015 -1.19271e-014
rhumerus -4.13514 39.7464 -46.8618
rradius 112.518
rwrist -45.9003
rhand 11.1748 -52.8043
rfingers 7.12502
rthumb 36.2397 -79.0615
lclavicle -1.83876e-015 -1.19271e-014
lhumerus -4.93819 -40.3425 87.6602
lradius 97.787
lwrist 39.9661
lhand -24.0329 -11.5074
lfingers 7.12502
lthumb 2.4456 18.4583
rfemur 5.53888 -2.55191 16.7877
rtibia -4.77083e-015
rfoot -15.161 -11.1069
rtoes -3.65078
lfemur -8.51053 -3.86583 -10.8315
ltibia 22.8809
lfoot -18.9954 10.427
ltoes -55.7192
1016
root -0.669616 18.7674 5.15409 1.21559 1.89453 -2.91576
lowerback 9.7807 1.28164 -2.7221
upperback -0.399195 1.3843 -0.0906338
thorax -5.97485 0.762743 1.23267
lowerneck -19.7888 -4.78112 -3.67123
upperneck 15.9299 -7.21038 8.32843
head 8.68789 -2.74667 2.46229
rclavicle 1.0138e-014 9.54166e-015
rhumerus -4.07373 38.6497 -47.5372
rradius 113.51
rwrist -46.2832
rhand 11.0897 -52.5404
rfingers 7.12502
rthumb 36.1592 -78.8177
lclavicle 1.0138e-014 9.54166e-015
lhumerus -5.49758 -40.5378 87.8405
lradius 97.8411
lwrist 40.0045
lhand -24.0081 -11.5823
lfingers 7.12502
lthumb 2.46952 18.3831
rfemur 5.54157 -2.43134 16.8156
rtibia -1.51076e-014
rfoot -15.1416 -11.1516
rtoes -4.06787
lfemur -8.44935 -3.8601 -10.8128
ltibia 22.8725
lfoot -19.0319 10.4955
ltoes -55.6614
1017
root -0.66919 18.7685 5.15318 1.22209 1.72023 -2.89338
lowerback 9.75797 1.2877 -2.68909
upperback -0.422757 1.39466 -0.122772
thorax -5.98562 0.766631 1.17903
lowerneck -19.7852 -4.71609 -3.60086
upperneck 16.0681 -7.13846 8.26037
head 8.72401 -2.71234 2.4384
rclavicle -2.5842e-015 -2.38542e-015
rhumerus -3.40099 37.3482 -47.9534
rradius 113.91
rwrist -46.586
rhand 10.0714 -52.0136
rfingers 7.12502
rthumb 35.1941 -78.5241
lclavicle -2.5842e-015 -2.38542e-015
lhumerus -5.76695 -40.6297 87.8978
lradius 97.8679
lwrist 39.9607
lhand -24.0334 -11.779
lfingers 7.12502
lthumb 2.44514 18.1867
rfemur 5.50933 -2.25816 16.7937
rtibia 1.11319e-014
rfoot -15.1053 -11.1844
rtoes -4.47229
lfemur -8.4047 -3.83781 -10.8461
ltibia 22.8582
lfoot -19.0989 10.5984
ltoes -55.6051
